<mxfile host="app.diagrams.net" modified="2024-03-08T18:11:53.611Z" agent="Mozilla/5.0 (Windows NT 10.0; Win64; x64) AppleWebKit/537.36 (KHTML, like Gecko) Chrome/123.0.0.0 Safari/537.36 Edg/123.0.0.0" etag="gI8qPI6DdOz6YmcAtQGP" version="24.0.2" type="device">
  <diagram name="Страница — 1" id="vIpxSS9XHAq-ea9QrbWM">
    <mxGraphModel dx="1066" dy="705" grid="1" gridSize="10" guides="1" tooltips="1" connect="1" arrows="1" fold="1" page="1" pageScale="1" pageWidth="827" pageHeight="1169" math="0" shadow="0">
      <root>
        <mxCell id="0" />
        <mxCell id="1" parent="0" />
        <mxCell id="I5BRIUTnlPAedlZNM3C1-1" value="Администратор салона" style="shape=umlActor;verticalLabelPosition=bottom;verticalAlign=top;html=1;outlineConnect=0;" vertex="1" parent="1">
          <mxGeometry x="190" y="80" width="30" height="60" as="geometry" />
        </mxCell>
        <mxCell id="I5BRIUTnlPAedlZNM3C1-8" style="edgeStyle=orthogonalEdgeStyle;rounded=0;orthogonalLoop=1;jettySize=auto;html=1;exitX=1;exitY=0.25;exitDx=0;exitDy=0;" edge="1" parent="1" target="I5BRIUTnlPAedlZNM3C1-7">
          <mxGeometry relative="1" as="geometry">
            <mxPoint x="215" y="190" as="sourcePoint" />
            <mxPoint x="360" y="190" as="targetPoint" />
            <Array as="points">
              <mxPoint x="215" y="191" />
              <mxPoint x="291" y="191" />
              <mxPoint x="291" y="190" />
            </Array>
          </mxGeometry>
        </mxCell>
        <mxCell id="I5BRIUTnlPAedlZNM3C1-9" value="Создать/изменить&lt;div&gt;карточку автомобиля()&lt;/div&gt;" style="edgeLabel;html=1;align=center;verticalAlign=middle;resizable=0;points=[];" vertex="1" connectable="0" parent="I5BRIUTnlPAedlZNM3C1-8">
          <mxGeometry x="0.0207" y="4" relative="1" as="geometry">
            <mxPoint as="offset" />
          </mxGeometry>
        </mxCell>
        <mxCell id="I5BRIUTnlPAedlZNM3C1-37" style="edgeStyle=orthogonalEdgeStyle;rounded=0;orthogonalLoop=1;jettySize=auto;html=1;exitX=1;exitY=0.75;exitDx=0;exitDy=0;" edge="1" parent="1" source="I5BRIUTnlPAedlZNM3C1-3" target="I5BRIUTnlPAedlZNM3C1-14">
          <mxGeometry relative="1" as="geometry">
            <Array as="points">
              <mxPoint x="215" y="450" />
            </Array>
          </mxGeometry>
        </mxCell>
        <mxCell id="I5BRIUTnlPAedlZNM3C1-38" value="Поменять статус&lt;div&gt;заявки на просмотр()&lt;/div&gt;" style="edgeLabel;html=1;align=center;verticalAlign=middle;resizable=0;points=[];" vertex="1" connectable="0" parent="I5BRIUTnlPAedlZNM3C1-37">
          <mxGeometry x="-0.6957" y="1" relative="1" as="geometry">
            <mxPoint x="39" as="offset" />
          </mxGeometry>
        </mxCell>
        <mxCell id="I5BRIUTnlPAedlZNM3C1-3" value="" style="rounded=0;whiteSpace=wrap;html=1;" vertex="1" parent="1">
          <mxGeometry x="195" y="170" width="20" height="330" as="geometry" />
        </mxCell>
        <mxCell id="I5BRIUTnlPAedlZNM3C1-34" style="edgeStyle=orthogonalEdgeStyle;rounded=0;orthogonalLoop=1;jettySize=auto;html=1;exitX=0.5;exitY=1;exitDx=0;exitDy=0;entryX=0.5;entryY=0;entryDx=0;entryDy=0;dashed=1;endArrow=none;endFill=0;" edge="1" parent="1" source="I5BRIUTnlPAedlZNM3C1-4" target="I5BRIUTnlPAedlZNM3C1-7">
          <mxGeometry relative="1" as="geometry" />
        </mxCell>
        <mxCell id="I5BRIUTnlPAedlZNM3C1-4" value="Подсистема Автомобили" style="rounded=0;whiteSpace=wrap;html=1;" vertex="1" parent="1">
          <mxGeometry x="300" y="130" width="150" height="30" as="geometry" />
        </mxCell>
        <mxCell id="I5BRIUTnlPAedlZNM3C1-35" style="edgeStyle=orthogonalEdgeStyle;rounded=0;orthogonalLoop=1;jettySize=auto;html=1;exitX=0.5;exitY=1;exitDx=0;exitDy=0;entryX=0.5;entryY=0;entryDx=0;entryDy=0;dashed=1;endArrow=none;endFill=0;" edge="1" parent="1" source="I5BRIUTnlPAedlZNM3C1-5" target="I5BRIUTnlPAedlZNM3C1-13">
          <mxGeometry relative="1" as="geometry" />
        </mxCell>
        <mxCell id="I5BRIUTnlPAedlZNM3C1-5" value="Подсистема Клиенты" style="rounded=0;whiteSpace=wrap;html=1;" vertex="1" parent="1">
          <mxGeometry x="470" y="130" width="150" height="30" as="geometry" />
        </mxCell>
        <mxCell id="I5BRIUTnlPAedlZNM3C1-36" style="edgeStyle=orthogonalEdgeStyle;rounded=0;orthogonalLoop=1;jettySize=auto;html=1;exitX=0.5;exitY=1;exitDx=0;exitDy=0;entryX=0.5;entryY=0;entryDx=0;entryDy=0;endArrow=none;endFill=0;dashed=1;" edge="1" parent="1" source="I5BRIUTnlPAedlZNM3C1-6" target="I5BRIUTnlPAedlZNM3C1-14">
          <mxGeometry relative="1" as="geometry" />
        </mxCell>
        <mxCell id="I5BRIUTnlPAedlZNM3C1-6" value="Подсистема Заявки на просмотр" style="rounded=0;whiteSpace=wrap;html=1;" vertex="1" parent="1">
          <mxGeometry x="640" y="130" width="150" height="30" as="geometry" />
        </mxCell>
        <mxCell id="I5BRIUTnlPAedlZNM3C1-41" style="edgeStyle=orthogonalEdgeStyle;rounded=0;orthogonalLoop=1;jettySize=auto;html=1;exitX=0.5;exitY=1;exitDx=0;exitDy=0;dashed=1;endArrow=none;endFill=0;" edge="1" parent="1" source="I5BRIUTnlPAedlZNM3C1-7">
          <mxGeometry relative="1" as="geometry">
            <mxPoint x="375" y="500" as="targetPoint" />
          </mxGeometry>
        </mxCell>
        <mxCell id="I5BRIUTnlPAedlZNM3C1-7" value="" style="rounded=0;whiteSpace=wrap;html=1;" vertex="1" parent="1">
          <mxGeometry x="365" y="170" width="20" height="220" as="geometry" />
        </mxCell>
        <mxCell id="I5BRIUTnlPAedlZNM3C1-32" style="edgeStyle=orthogonalEdgeStyle;rounded=0;orthogonalLoop=1;jettySize=auto;html=1;exitX=1;exitY=0.75;exitDx=0;exitDy=0;dashed=1;" edge="1" parent="1" source="I5BRIUTnlPAedlZNM3C1-13" target="I5BRIUTnlPAedlZNM3C1-14">
          <mxGeometry relative="1" as="geometry">
            <Array as="points">
              <mxPoint x="555" y="400" />
            </Array>
          </mxGeometry>
        </mxCell>
        <mxCell id="I5BRIUTnlPAedlZNM3C1-33" value="Передать о клиенте()" style="edgeLabel;html=1;align=center;verticalAlign=middle;resizable=0;points=[];" vertex="1" connectable="0" parent="I5BRIUTnlPAedlZNM3C1-32">
          <mxGeometry x="0.2986" y="-2" relative="1" as="geometry">
            <mxPoint x="-15" y="-2" as="offset" />
          </mxGeometry>
        </mxCell>
        <mxCell id="I5BRIUTnlPAedlZNM3C1-42" style="edgeStyle=orthogonalEdgeStyle;rounded=0;orthogonalLoop=1;jettySize=auto;html=1;exitX=0.5;exitY=1;exitDx=0;exitDy=0;endArrow=none;endFill=0;dashed=1;" edge="1" parent="1" source="I5BRIUTnlPAedlZNM3C1-13">
          <mxGeometry relative="1" as="geometry">
            <mxPoint x="545" y="500" as="targetPoint" />
          </mxGeometry>
        </mxCell>
        <mxCell id="I5BRIUTnlPAedlZNM3C1-13" value="" style="rounded=0;whiteSpace=wrap;html=1;" vertex="1" parent="1">
          <mxGeometry x="535" y="170" width="20" height="270" as="geometry" />
        </mxCell>
        <mxCell id="I5BRIUTnlPAedlZNM3C1-19" style="edgeStyle=orthogonalEdgeStyle;rounded=0;orthogonalLoop=1;jettySize=auto;html=1;exitX=0.025;exitY=0.643;exitDx=0;exitDy=0;exitPerimeter=0;" edge="1" parent="1" source="I5BRIUTnlPAedlZNM3C1-14">
          <mxGeometry relative="1" as="geometry">
            <mxPoint x="385" y="310" as="targetPoint" />
            <Array as="points">
              <mxPoint x="711" y="310" />
            </Array>
          </mxGeometry>
        </mxCell>
        <mxCell id="I5BRIUTnlPAedlZNM3C1-23" value="Запросить о&amp;nbsp;&lt;div&gt;наличии автомобиля()&lt;/div&gt;" style="edgeLabel;html=1;align=center;verticalAlign=middle;resizable=0;points=[];" vertex="1" connectable="0" parent="I5BRIUTnlPAedlZNM3C1-19">
          <mxGeometry x="-0.3763" y="1" relative="1" as="geometry">
            <mxPoint x="-33" as="offset" />
          </mxGeometry>
        </mxCell>
        <mxCell id="I5BRIUTnlPAedlZNM3C1-30" style="edgeStyle=orthogonalEdgeStyle;rounded=0;orthogonalLoop=1;jettySize=auto;html=1;exitX=0;exitY=0.75;exitDx=0;exitDy=0;" edge="1" parent="1" source="I5BRIUTnlPAedlZNM3C1-14" target="I5BRIUTnlPAedlZNM3C1-13">
          <mxGeometry relative="1" as="geometry">
            <Array as="points">
              <mxPoint x="710" y="360" />
            </Array>
          </mxGeometry>
        </mxCell>
        <mxCell id="I5BRIUTnlPAedlZNM3C1-31" value="Запросить информацию&lt;div&gt;о клиенте&lt;/div&gt;" style="edgeLabel;html=1;align=center;verticalAlign=middle;resizable=0;points=[];" vertex="1" connectable="0" parent="I5BRIUTnlPAedlZNM3C1-30">
          <mxGeometry x="0.0925" y="-3" relative="1" as="geometry">
            <mxPoint x="-23" y="3" as="offset" />
          </mxGeometry>
        </mxCell>
        <mxCell id="I5BRIUTnlPAedlZNM3C1-14" value="" style="rounded=0;whiteSpace=wrap;html=1;" vertex="1" parent="1">
          <mxGeometry x="705" y="170" width="20" height="330" as="geometry" />
        </mxCell>
        <mxCell id="I5BRIUTnlPAedlZNM3C1-17" style="edgeStyle=orthogonalEdgeStyle;rounded=0;orthogonalLoop=1;jettySize=auto;html=1;exitX=1;exitY=0.5;exitDx=0;exitDy=0;" edge="1" parent="1" source="I5BRIUTnlPAedlZNM3C1-3" target="I5BRIUTnlPAedlZNM3C1-14">
          <mxGeometry relative="1" as="geometry">
            <mxPoint x="680" y="280" as="targetPoint" />
            <Array as="points">
              <mxPoint x="215" y="280" />
            </Array>
          </mxGeometry>
        </mxCell>
        <mxCell id="I5BRIUTnlPAedlZNM3C1-18" value="Создать/изменить&amp;nbsp;&lt;div&gt;заявку на просмотр()&lt;/div&gt;" style="edgeLabel;html=1;align=center;verticalAlign=middle;resizable=0;points=[];" vertex="1" connectable="0" parent="I5BRIUTnlPAedlZNM3C1-17">
          <mxGeometry x="-0.7253" y="1" relative="1" as="geometry">
            <mxPoint x="65" y="1" as="offset" />
          </mxGeometry>
        </mxCell>
        <mxCell id="I5BRIUTnlPAedlZNM3C1-21" style="edgeStyle=orthogonalEdgeStyle;rounded=0;orthogonalLoop=1;jettySize=auto;html=1;exitX=1;exitY=0.25;exitDx=0;exitDy=0;entryX=0.1;entryY=0.2;entryDx=0;entryDy=0;entryPerimeter=0;" edge="1" parent="1" source="I5BRIUTnlPAedlZNM3C1-3" target="I5BRIUTnlPAedlZNM3C1-13">
          <mxGeometry relative="1" as="geometry">
            <Array as="points">
              <mxPoint x="535" y="225" />
              <mxPoint x="535" y="224" />
            </Array>
          </mxGeometry>
        </mxCell>
        <mxCell id="I5BRIUTnlPAedlZNM3C1-22" value="Создать/изменить&lt;div&gt;карточку клиента()&lt;/div&gt;" style="edgeLabel;html=1;align=center;verticalAlign=middle;resizable=0;points=[];" vertex="1" connectable="0" parent="I5BRIUTnlPAedlZNM3C1-21">
          <mxGeometry x="-0.5562" y="-3" relative="1" as="geometry">
            <mxPoint x="35" as="offset" />
          </mxGeometry>
        </mxCell>
        <mxCell id="I5BRIUTnlPAedlZNM3C1-24" style="edgeStyle=orthogonalEdgeStyle;rounded=0;orthogonalLoop=1;jettySize=auto;html=1;exitX=1;exitY=0.75;exitDx=0;exitDy=0;dashed=1;" edge="1" parent="1" source="I5BRIUTnlPAedlZNM3C1-7" target="I5BRIUTnlPAedlZNM3C1-14">
          <mxGeometry relative="1" as="geometry">
            <mxPoint x="660" y="335" as="targetPoint" />
            <Array as="points">
              <mxPoint x="620" y="335" />
              <mxPoint x="620" y="335" />
            </Array>
          </mxGeometry>
        </mxCell>
        <mxCell id="I5BRIUTnlPAedlZNM3C1-25" value="Подтвердить наличие()" style="edgeLabel;html=1;align=center;verticalAlign=middle;resizable=0;points=[];" vertex="1" connectable="0" parent="I5BRIUTnlPAedlZNM3C1-24">
          <mxGeometry x="-0.5938" y="-1" relative="1" as="geometry">
            <mxPoint x="9" as="offset" />
          </mxGeometry>
        </mxCell>
        <mxCell id="I5BRIUTnlPAedlZNM3C1-39" style="edgeStyle=orthogonalEdgeStyle;rounded=0;orthogonalLoop=1;jettySize=auto;html=1;exitX=1;exitY=0.848;exitDx=0;exitDy=0;curved=1;exitPerimeter=0;" edge="1" parent="1" source="I5BRIUTnlPAedlZNM3C1-14" target="I5BRIUTnlPAedlZNM3C1-14">
          <mxGeometry relative="1" as="geometry">
            <Array as="points">
              <mxPoint x="745" y="450" />
              <mxPoint x="745" y="490" />
            </Array>
          </mxGeometry>
        </mxCell>
        <mxCell id="I5BRIUTnlPAedlZNM3C1-40" value="Поменять&lt;div&gt;статус()&lt;/div&gt;" style="edgeLabel;html=1;align=center;verticalAlign=middle;resizable=0;points=[];" vertex="1" connectable="0" parent="I5BRIUTnlPAedlZNM3C1-39">
          <mxGeometry x="0.0274" y="1" relative="1" as="geometry">
            <mxPoint x="34" as="offset" />
          </mxGeometry>
        </mxCell>
      </root>
    </mxGraphModel>
  </diagram>
</mxfile>
